<?xml version="1.0" encoding="utf-8"?>
<!-- Generator: Adobe Illustrator 28.2.0, SVG Export Plug-In . SVG Version: 6.00 Build 0)  -->
<svg version="1.1" id="Layer_1" xmlns="http://www.w3.org/2000/svg" xmlns:xlink="http://www.w3.org/1999/xlink" x="0px" y="0px"
	 viewBox="0 0 1080 1350" style="enable-background:new 0 0 1080 1350;" xml:space="preserve">
<style type="text/css">
	.st0{fill:#FFFFFF;}
</style>
<path class="st0" d="M940,1075c-266.67,0-533.33,0-800,0c0-266.67,0-533.33,0-800c266.67,0,533.33,0,800,0
	C940,541.67,940,808.33,940,1075z M212.33,443.1c0,2.62,0,4.27,0,5.91c-0.07,45.16-0.23,90.33-0.19,135.49
	c0.07,102.49,0.24,204.98,0.36,307.47c0.01,6.52,0.02,6.52,6.69,6.53c5.43,0.01,10.86,0,16.82,0c0,8.65,0,16.58,0,24.94
	c6.67,0,12.81,0.15,18.94-0.06c3.46-0.11,4.77,1.08,4.65,4.6c-0.21,6.27-0.06,12.56-0.06,19.45c6.74,0,12.86,0.21,18.96-0.08
	c4-0.19,5.31,1.19,5.12,5.15c-0.28,6.06-0.07,12.15-0.07,18.19c24.61,0,48.35,0,72.64,0c0-8.05,0-15.78,0-23.44
	c32.15,0,63.75,0,95.9,0c0,7.98,0,15.71,0,23.93c24.29,0,48.03,0,72.22,0c0,8.09,0,15.69,0,23.47c1.59,0.08,2.72,0.18,3.86,0.18
	c76.83-0.09,153.66-0.22,230.48-0.21c4.15,0,5.15-1.5,5-5.28c-0.24-5.92-0.06-11.85-0.06-18.56c16.52,0,32.23,0,48.43,0
	c0-8.38,0-15.97,0-24.15c8.21,0,15.94,0,24.34,0c0-16.03,0-31.45,0-47.4c8.12,0,15.54,0,23.1,0c0-160.25,0-319.94,0-480.09
	c-8.01,0-15.45,0-23.54,0c0-8.33,0-16.22,0-24.56c-8.25,0-15.84,0-23.9,0c0-8.07,0-15.65,0-23.73c-8.23,0-15.98,0-24.32,0
	c0-8.07,0-15.63,0-23.83c-9.89,0-19.19,0-28.49,0c-76.5-0.04-152.99-0.18-229.49-0.1c-79.82,0.08-159.64,0.4-239.45,0.46
	c-4.7,0-6.15,1.46-5.87,6.01c0.34,5.74,0.08,11.51,0.08,17.75c-8.51,0-16.26,0-24.61,0c0,8.22,0,15.94,0,24.12c-8.2,0-15.79,0-24,0
	c0,16.06,0,31.64,0,47.82C227.82,443.1,220.41,443.1,212.33,443.1z"/>
<path d="M212.33,443.1c8.08,0,15.49,0,23.54,0c0-16.18,0-31.76,0-47.82c8.21,0,15.81,0,24,0c0-8.18,0-15.91,0-24.12
	c8.35,0,16.1,0,24.61,0c0-6.25,0.26-12.02-0.08-17.75c-0.27-4.56,1.17-6.01,5.87-6.01c79.82-0.06,159.64-0.38,239.45-0.46
	c76.5-0.08,152.99,0.06,229.49,0.1c9.3,0,18.6,0,28.49,0c0,8.2,0,15.77,0,23.83c8.34,0,16.09,0,24.32,0c0,8.08,0,15.66,0,23.73
	c8.06,0,15.65,0,23.9,0c0,8.34,0,16.23,0,24.56c8.09,0,15.53,0,23.54,0c0,160.15,0,319.84,0,480.09c-7.57,0-14.99,0-23.1,0
	c0,15.95,0,31.37,0,47.4c-8.4,0-16.12,0-24.34,0c0,8.18,0,15.77,0,24.15c-16.2,0-31.91,0-48.43,0c0,6.71-0.18,12.64,0.06,18.56
	c0.15,3.78-0.85,5.28-5,5.28c-76.83-0.02-153.66,0.11-230.48,0.21c-1.14,0-2.28-0.1-3.86-0.18c0-7.78,0-15.37,0-23.47
	c-24.19,0-47.93,0-72.22,0c0-8.22,0-15.95,0-23.93c-32.15,0-63.75,0-95.9,0c0,7.66,0,15.39,0,23.44c-24.29,0-48.03,0-72.64,0
	c0-6.04-0.21-12.13,0.07-18.19c0.19-3.96-1.12-5.34-5.12-5.15c-6.1,0.29-12.23,0.08-18.96,0.08c0-6.89-0.15-13.18,0.06-19.45
	c0.12-3.52-1.19-4.72-4.65-4.6c-6.13,0.2-12.27,0.06-18.94,0.06c0-8.37,0-16.29,0-24.94c-5.96,0-11.39,0-16.82,0
	c-6.68-0.01-6.69-0.01-6.69-6.53c-0.13-102.49-0.29-204.98-0.36-307.47c-0.03-45.16,0.12-90.33,0.19-135.49
	C212.34,447.37,212.33,445.72,212.33,443.1z M763.64,851.11c0-120.44,0-240.15,0-360.23c-7.96,0-15.57,0-23.71,0
	c0-8.09,0-15.82,0-24.08c-8.27,0-16,0-24.08,0c0-8.15,0-15.76,0-23.48c-120.09,0-239.8,0-360.06,0c0,8.04,0,15.77,0,23.85
	c-8.15,0-15.76,0-23.9,0c0,16.09,0,31.82,0,48.08c-8.27,0-16,0-23.61,0c0,104.15,0,207.74,0,311.88c7.99,0,15.72,0,23.98,0
	c0,16.27,0,32,0,48.08c8.15,0,15.76,0,23.9,0c0,8.09,0,15.82,0,23.39c112.26,0,223.98,0,336.06,0c0-8.01,0-15.62,0-23.76
	c16.09,0,31.82,0,47.9,0c0-8.15,0-15.76,0-23.72C748.09,851.11,755.69,851.11,763.64,851.11z"/>
<path class="st0" d="M763.64,851.11c-7.95,0-15.55,0-23.52,0c0,7.97,0,15.57,0,23.72c-16.09,0-31.81,0-47.9,0
	c0,8.14,0,15.75,0,23.76c-112.09,0-223.8,0-336.06,0c0-7.56,0-15.29,0-23.39c-8.14,0-15.75,0-23.9,0c0-16.08,0-31.81,0-48.08
	c-8.26,0-15.99,0-23.98,0c0-104.14,0-207.74,0-311.88c7.61,0,15.34,0,23.61,0c0-16.26,0-31.99,0-48.08c8.14,0,15.75,0,23.9,0
	c0-8.08,0-15.81,0-23.85c120.26,0,239.97,0,360.06,0c0,7.72,0,15.32,0,23.48c8.08,0,15.81,0,24.08,0c0,8.26,0,15.99,0,24.08
	c8.14,0,15.75,0,23.71,0C763.64,610.96,763.64,730.67,763.64,851.11z M715.77,514.9c0-8.33,0-15.94,0-24.08c-8.09,0-15.83,0-23.91,0
	c0-8.15,0-15.76,0-23.51c-104.09,0-207.81,0-312.08,0c0,8.04,0,15.76,0,23.85c-8.15,0-15.76,0-23.9,0c0,16.09,0,31.82,0,48.08
	c-8.27,0-16.01,0-23.6,0c0,88.15,0,175.75,0,263.9c8,0,15.73,0,23.81,0c0,8.15,0,15.76,0,23.9c8.09,0,15.82,0,24.08,0
	c0,8.27,0,16,0,24.08c24.15,0,47.75,0,71.9,0c0,8.09,0,15.82,0,23.49c72.27,0,143.99,0,216.08,0c0-7.98,0-15.59,0-23.73
	c16.09,0,31.82,0,48.08,0c0-8.27,0-16.01,0-24.08c8.15,0,15.76,0,23.41,0c0-104.09,0-207.81,0-311.9
	C731.7,514.9,724.1,514.9,715.77,514.9z"/>
<path d="M715.77,514.9c8.32,0,15.93,0,23.88,0c0,104.09,0,207.81,0,311.9c-7.65,0-15.25,0-23.41,0c0,8.08,0,15.81,0,24.08
	c-16.26,0-31.99,0-48.08,0c0,8.14,0,15.75,0,23.73c-72.09,0-143.81,0-216.08,0c0-7.67,0-15.4,0-23.49c-24.15,0-47.75,0-71.9,0
	c0-8.08,0-15.81,0-24.08c-8.26,0-15.99,0-24.08,0c0-8.15,0-15.75,0-23.9c-8.08,0-15.81,0-23.81,0c0-88.15,0-175.75,0-263.9
	c7.6,0,15.33,0,23.6,0c0-16.26,0-31.99,0-48.08c8.14,0,15.75,0,23.9,0c0-8.08,0-15.81,0-23.85c104.27,0,207.99,0,312.08,0
	c0,7.75,0,15.35,0,23.51c8.08,0,15.81,0,23.91,0C715.77,498.96,715.77,506.57,715.77,514.9z M476.05,586.92c-7.92,0-15.85,0-24.31,0
	c0,8.48,0,16.21,0,24.28c-8.15,0-15.75,0-23.42,0c0,40.08,0,79.78,0,120.03c8.05,0,15.78,0,23.85,0c0,8.15,0,15.75,0,23.89
	c8.08,0,15.81,0,24.07,0c0,8.27,0,15.99,0,23.62c40.14,0,79.72,0,119.86,0c0-7.97,0-15.7,0-23.96c8.27,0,15.99,0,24.07,0
	c0-8.15,0-15.75,0-23.89c8.08,0,15.81,0,24.06,0c0-16.26,0-31.98,0-48.06c8.14,0,15.75,0,23.44,0c0-8.09,0-15.81,0-24.07
	c-8.05,0-15.78,0-23.84,0c0-24.14,0-47.74,0-71.87c-8.08,0-15.8,0-24.06,0c0-8.27,0-15.99,0-24.06c-16.14,0-31.74,0-47.88,0
	c0-8.08,0-15.81,0-23.45c-16.27,0-31.98,0-48.06,0c0,7.98,0,15.59,0,23.72c-16.08,0-31.8,0-47.92,0c0,8.34,0,16.15,0,23.95
	L476.05,586.92z M691.78,515.35c-16.11,0-31.81,0-47.38,0c0,16.06,0,31.77,0,47.38c15.99,0,31.57,0,47.38,0
	C691.78,546.88,691.78,531.3,691.78,515.35z"/>
<path class="st0" d="M475.91,587.06c0-7.8,0-15.61,0-23.95c16.12,0,31.84,0,47.92,0c0-8.13,0-15.74,0-23.72c16.08,0,31.79,0,48.06,0
	c0,7.64,0,15.37,0,23.45c16.14,0,31.74,0,47.88,0c0,8.07,0,15.8,0,24.06c8.25,0,15.98,0,24.06,0c0,24.14,0,47.73,0,71.87
	c8.06,0,15.79,0,23.84,0c0,8.26,0,15.97,0,24.07c-7.7,0-15.3,0-23.44,0c0,16.08,0,31.8,0,48.06c-8.25,0-15.98,0-24.06,0
	c0,8.14,0,15.74,0,23.89c-8.07,0-15.8,0-24.07,0c0,8.25,0,15.98,0,23.96c-40.13,0-79.72,0-119.86,0c0-7.62,0-15.35,0-23.62
	c-8.25,0-15.98,0-24.07,0c0-8.14,0-15.74,0-23.89c-8.07,0-15.8,0-23.85,0c0-40.25,0-79.96,0-120.03c7.67,0,15.27,0,23.42,0
	c0-8.07,0-15.8,0-24.28c8.46,0,16.38,0,24.31,0c0,15.93,0,31.85,0,48.32c-8.44,0-16.17,0-23.77,0c0,24.15,0,47.75,0,71.9
	c8,0,15.73,0,23.99,0c0,8.27,0,16,0,24.08c8.15,0,15.76,0,23.9,0c0,8.09,0,15.82,0,23.54c24.15,0,47.75,0,71.9,0
	c0-7.96,0-15.69,0-23.95c8.27,0,16,0,24.08,0c0-8.15,0-15.76,0-23.9c8.09,0,15.82,0,23.47,0c0-32.27,0-63.99,0-96.07
	c-7.99,0-15.59,0-23.73,0c0-8.09,0-15.82,0-23.77C555.52,587.06,515.72,587.06,475.91,587.06z"/>
<path class="st0" d="M691.78,515.35c0,15.94,0,31.53,0,47.38c-15.81,0-31.39,0-47.38,0c0-15.61,0-31.32,0-47.38
	C659.97,515.35,675.67,515.35,691.78,515.35z"/>
<path d="M475.91,587.06c39.81,0,79.61,0,119.97,0c0,7.95,0,15.68,0,23.77c8.14,0,15.75,0,23.73,0c0,32.09,0,63.8,0,96.07
	c-7.65,0-15.38,0-23.47,0c0,8.14,0,15.75,0,23.9c-8.08,0-15.81,0-24.08,0c0,8.26,0,15.99,0,23.95c-24.15,0-47.75,0-71.9,0
	c0-7.71,0-15.44,0-23.54c-8.14,0-15.75,0-23.9,0c0-8.07,0-15.81,0-24.08c-8.26,0-15.99,0-23.99,0c0-24.15,0-47.75,0-71.9
	c7.6,0,15.33,0,23.77,0c0-16.47,0-32.4,0-48.32C476.05,586.92,475.91,587.06,475.91,587.06z"/>
</svg>
